<svg width="63" height="65" viewBox="0 0 63 65" fill="none" xmlns="http://www.w3.org/2000/svg">
<path fill-rule="evenodd" clip-rule="evenodd" d="M49.9993 35.9153C50.8392 35.9153 51.6446 36.2489 52.2385 36.8428C52.8323 37.4366 53.166 38.2421 53.166 39.082V45.4153H59.4993C60.3392 45.4153 61.1446 45.7489 61.7385 46.3428C62.3323 46.9366 62.666 47.7421 62.666 48.5819C62.666 49.4218 62.3323 50.2273 61.7385 50.8211C61.1446 51.415 60.3392 51.7486 59.4993 51.7486H53.166V58.0819C53.166 58.9218 52.8323 59.7273 52.2385 60.3211C51.6446 60.915 50.8392 61.2486 49.9993 61.2486C49.1595 61.2486 48.354 60.915 47.7601 60.3211C47.1663 59.7273 46.8326 58.9218 46.8326 58.0819V51.7486H40.4993C39.6595 51.7486 38.854 51.415 38.2601 50.8211C37.6663 50.2273 37.3326 49.4218 37.3326 48.5819C37.3326 47.7421 37.6663 46.9366 38.2601 46.3428C38.854 45.7489 39.6595 45.4153 40.4993 45.4153H46.8326V39.082C46.8326 38.2421 47.1663 37.4366 47.7601 36.8428C48.354 36.2489 49.1595 35.9153 49.9993 35.9153Z" fill="white"/>
<path fill-rule="evenodd" clip-rule="evenodd" d="M39.6667 11.3333H48.1667C50.421 11.3333 52.583 12.2289 54.1771 13.8229C55.7711 15.417 56.6667 17.579 56.6667 19.8333V31.025H42.5V34C42.5 34.7514 42.2015 35.4721 41.6701 36.0035C41.1388 36.5348 40.4181 36.8333 39.6667 36.8333C38.9152 36.8333 38.1945 36.5348 37.6632 36.0035C37.1318 35.4721 36.8333 34.7514 36.8333 34V31.025H19.8333V34C19.8333 34.7514 19.5348 35.4721 19.0035 36.0035C18.4721 36.5348 17.7514 36.8333 17 36.8333C16.2486 36.8333 15.5279 36.5348 14.9965 36.0035C14.4652 35.4721 14.1667 34.7514 14.1667 34V31.025H5.66667V45.3333C5.66667 46.0848 5.96518 46.8055 6.49653 47.3368C7.02788 47.8682 7.74855 48.1667 8.5 48.1667H28.3333C28.3333 48.1667 31.3325 48.1667 31.3325 50.915C31.3325 53.915 28.3333 53.8333 28.3333 53.8333H8.5C6.24566 53.8333 4.08365 52.9378 2.48959 51.3437C0.895533 49.7497 0 47.5877 0 45.3333V19.8333C0 17.579 0.895533 15.417 2.48959 13.8229C4.08365 12.2289 6.24566 11.3333 8.5 11.3333H17V8.5C17 6.24566 17.8955 4.08365 19.4896 2.48959C21.0836 0.895533 23.2457 0 25.5 0H31.1667C33.421 0 35.583 0.895533 37.1771 2.48959C38.7711 4.08365 39.6667 6.24566 39.6667 8.5V11.3333ZM23.4965 6.49653C22.9652 7.02788 22.6667 7.74855 22.6667 8.5V11.3333H34V8.5C34 7.74855 33.7015 7.02788 33.1701 6.49653C32.6388 5.96518 31.9181 5.66667 31.1667 5.66667H25.5C24.7486 5.66667 24.0279 5.96518 23.4965 6.49653ZM5.66667 25.5H51V19.8333C51 19.0819 50.7015 18.3612 50.1701 17.8299C49.6388 17.2985 48.9181 17 48.1667 17H8.5C7.74855 17 7.02788 17.2985 6.49653 17.8299C5.96518 18.3612 5.66667 19.0819 5.66667 19.8333V25.5Z" fill="#F5F5F5"/>
</svg>
